<?xml version="1.0" encoding="utf-8"?>
<!-- Generator: Adobe Illustrator 25.2.1, SVG Export Plug-In . SVG Version: 6.00 Build 0)  -->
<svg version="1.1" id="Layer_1" xmlns="http://www.w3.org/2000/svg" xmlns:xlink="http://www.w3.org/1999/xlink" x="0px" y="0px"
	 viewBox="0 0 400 400" style="enable-background:new 0 0 400 400;" xml:space="preserve">
<style type="text/css">
	.st0{fill:#FFFFFF;}
</style>
<g>
	<defs>
		<rect id="SVGID_1_" x="-0.2" y="0.3" width="400" height="400"/>
	</defs>
	<clipPath id="SVGID_2_">
		<use xlink:href="#SVGID_1_"  style="overflow:visible;"/>
	</clipPath>
	<g style="clip-path:url(#SVGID_2_);">
		
			<image style="overflow:visible;" width="476" height="476" id="XMLID_28_" xlink:href="98C9B50D0BC5E6DF.png"  transform="matrix(1 0 0 1 -42 -38)">
		</image>
	</g>
</g>
<path class="st0" d="M291,210.3v-19.9l-18.6-4.7c-0.6-3.1-1.4-6.1-2.4-9.1l13.8-13.3l-9.9-17.2l-18.5,5.3c-2.1-2.3-4.3-4.6-6.6-6.6
	l5.3-18.5l-17.2-9.9l-13.3,13.8c-2.9-1-6-1.8-9.1-2.4l-4.7-18.6h-19.9l-4.7,18.6c-3.1,0.6-6.1,1.4-9.1,2.4l-13.4-13.8l-17.2,9.9
	l5.3,18.5c-2.3,2.1-4.6,4.3-6.6,6.6l-18.5-5.3l-9.9,17.2l13.8,13.4c-1,2.9-1.8,6-2.4,9.1l-18.6,4.7v19.9l18.6,4.7
	c0.6,3.1,1.4,6.1,2.4,9.1l-13.8,13.3l9.9,17.2l18.5-5.3c2.1,2.3,4.3,4.6,6.6,6.6l-5.3,18.5l17.2,9.9l13.3-13.8c2.9,1,6,1.8,9.1,2.4
	l4.7,18.6h19.9l4.7-18.6c3.1-0.6,6.1-1.4,9.1-2.4l13.3,13.8l17.2-9.9l-5.3-18.5c2.3-2.1,4.6-4.3,6.6-6.6l18.5,5.3l9.9-17.2
	L269.9,224c1-2.9,1.8-6,2.4-9.1C272.4,214.9,291,210.3,291,210.3z M199.8,230.7c-16.8,0-30.4-13.6-30.4-30.4s13.6-30.4,30.4-30.4
	s30.4,13.6,30.4,30.4S216.6,230.7,199.8,230.7z"/>
</svg>
